<?xml version="1.0" encoding="utf-8"?>
<!-- Generator: Adobe Illustrator 19.0.0, SVG Export Plug-In . SVG Version: 6.00 Build 0)  -->
<svg version="1.1" id="图层_1" xmlns="http://www.w3.org/2000/svg" xmlns:xlink="http://www.w3.org/1999/xlink" x="0px" y="0px"
	 viewBox="0 0 100 100" style="enable-background:new 0 0 100 100;" xml:space="preserve">
<style type="text/css">
	.st0{fill:url(#XMLID_3_);}
</style>
<g id="XMLID_1_">
	<g id="XMLID_17_">
		<linearGradient id="XMLID_3_" gradientUnits="userSpaceOnUse" x1="61.5422" y1="71.6482" x2="33.5221" y2="23.1159">
			<stop  offset="0" style="stop-color:#FFF21F"/>
			<stop  offset="0" style="stop-color:#FFEF1C"/>
			<stop  offset="0" style="stop-color:#FDDC0D"/>
			<stop  offset="0" style="stop-color:#FCD103"/>
			<stop  offset="0" style="stop-color:#FCCD00"/>
			<stop  offset="0" style="stop-color:#F1942E"/>
			<stop  offset="0" style="stop-color:#338BF9"/>
			<stop  offset="1" style="stop-color:#03DE81"/>
		</linearGradient>
		<path id="XMLID_18_" class="st0" d="M71.3,24.6c0.9-0.8,2.5-2.5,3.8-2.5c1.1,0,1.4,0.7,1.4,1.7c0,2.7-3.5,9-6.9,8.6l-12,11.6
			l-1.6,18.6c-0.2,2-0.9,4.6,1.9,4.6c2.9,0,7.1-3.6,9.4-5l1.4,2.1c-3.3,4.1-12.1,12-17.5,12c-5.1,0-4.5-7-4.3-10.5l0.6-12.1
			L32.6,67.7c-7.7,7.3-9.9,7.7-10.7,7.7c-1.4,0-2.2-1-2.2-2.3c0-4.8,8.5-11.9,13.2-12.8l15.3-14.5l0.8-18
			c-7.5,2.6-15.2,4.8-22.2,8.6v0.2c4.5,0.3,5.8,0,5.8,1s-2.6,1.1-10.8,3.7c-1.2,0.4-3.7,0.9-3.7-1.1c0-2.2,3.5-9.3,5.3-10.8
			c6.3-5.5,22.2-10.3,30.4-10.3c5.7,0,5.8,3,5.3,7.8l-1,9.9L71.3,24.6z"/>
	</g>
</g>
</svg>
